mtllib model_0.mtl
o model_0
v -77.40760040283203 -2.6756744384765625 29.794130325317383 
v -77.40760040283203 -2.6756744384765625 35.14545822143555 
v -77.40760040283203 2.675654888153076 29.794130325317383 
v -77.40760040283203 2.675654888153076 35.14545822143555 
vn -0.373738169670105 5.021503923785531e-8 7.276948110757075e-8 
vn -0.373738169670105 5.021503923785531e-8 7.276948110757075e-8 
vn -0.373738169670105 5.021503923785531e-8 7.276948110757075e-8 
vn -0.373738169670105 5.021503923785531e-8 7.276948110757075e-8 
s on 
f 1//1 2//2 3//3 
f 2//2 4//4 3//3 

